# xmcd
#
# Track frame offsets:
#	150
#	15505
#	31910
#	45815
#	60388
#	74151
#	88568
#	104963
#	118454
#	133328
#	142591
#	157542
#	170062
#	182373
#	194388
#
# Disc length: 2810 seconds
#
# Revision: 1
# Processed by: cddbd v1.4PL0 Copyright (c) Steve Scherf et al.
# Submitted via: audiograbber 1.81.02
#
DISCID=c80af80f
DTITLE=Palomo - Homanaje A Los Relampagos Del Norte
DYEAR=2003
DGENRE=Latin
TTITLE0=Baraja De Oro
TTITLE1=Con La Tinta De Mi Sangre
TTITLE2=El Disgusto
TTITLE3=Idos De La Mente
TTITLE4=Ni Los Pleitos
TTITLE5=Cobardemente
TTITLE6=Vida Truncada
TTITLE7=Mi Tesoro
TTITLE8=Po El Amor A Mi Madre
TTITLE9=Que Tal Si Te Compro
TTITLE10=Capullito De Rosa
TTITLE11=Tengo Miedo
TTITLE12=La Calandria
TTITLE13=Caminar, Caminar
TTITLE14=Rey Pobre
EXTD=
EXTT0=
EXTT1=
EXTT2=
EXTT3=
EXTT4=
EXTT5=
EXTT6=
EXTT7=
EXTT8=
EXTT9=
EXTT10=
EXTT11=
EXTT12=
EXTT13=
EXTT14=
PLAYORDER=
